<?xml version="1.0" encoding="UTF-8" standalone="no"?>
<!-- Created with Inkscape (http://www.inkscape.org/) -->

<svg
   xmlns:dc="http://purl.org/dc/elements/1.1/"
   xmlns:cc="http://creativecommons.org/ns#"
   xmlns:rdf="http://www.w3.org/1999/02/22-rdf-syntax-ns#"
   xmlns:svg="http://www.w3.org/2000/svg"
   xmlns="http://www.w3.org/2000/svg"
   xmlns:sodipodi="http://sodipodi.sourceforge.net/DTD/sodipodi-0.dtd"
   xmlns:inkscape="http://www.inkscape.org/namespaces/inkscape"
   width="32"
   height="20"
   id="svg2990"
   version="1.1"
   inkscape:version="0.48.4 r9939"
   sodipodi:docname="add-tag-black.svg">
  <defs
     id="defs2992" />
  <sodipodi:namedview
     id="base"
     pagecolor="#ffffff"
     bordercolor="#666666"
     borderopacity="1.0"
     inkscape:pageopacity="0.0"
     inkscape:pageshadow="2"
     inkscape:zoom="11.197802"
     inkscape:cx="14.636789"
     inkscape:cy="13.856231"
     inkscape:current-layer="layer1"
     showgrid="true"
     inkscape:grid-bbox="true"
     inkscape:document-units="px"
     inkscape:window-width="764"
     inkscape:window-height="639"
     inkscape:window-x="146"
     inkscape:window-y="154"
     inkscape:window-maximized="0" />
  <metadata
     id="metadata2995">
    <rdf:RDF>
      <cc:Work
         rdf:about="">
        <dc:format>image/svg+xml</dc:format>
        <dc:type
           rdf:resource="http://purl.org/dc/dcmitype/StillImage" />
        <dc:title></dc:title>
      </cc:Work>
    </rdf:RDF>
  </metadata>
  <g
     id="layer1"
     inkscape:label="Layer 1"
     inkscape:groupmode="layer"
     transform="translate(0,-12)">
    <rect
       style="fill:#000000;stroke:#000000"
       id="rect3011"
       width="17.503435"
       height="15.538764"
       x="2.2325809"
       y="14.050049" />
    <path
       style="fill:none;stroke:#000000;stroke-width:0.94355631px;stroke-linecap:butt;stroke-linejoin:miter;stroke-opacity:1"
       d="m 20.601871,14.557403 9.521542,7.113956 -9.701192,7.588219 z"
       id="path3018"
       inkscape:connector-curvature="0" />
    <path
       style="fill:#000000;stroke:#000000;stroke-width:0.08930324"
       d="m 21.02583,21.929905 c 0.03618,-3.433356 0.07902,-6.256679 0.09521,-6.274049 0.01619,-0.01737 1.852559,1.331347 4.080826,2.997151 l 4.051394,3.028735 -3.472982,2.718256 c -1.910141,1.49504 -3.776113,2.955432 -4.146606,3.245314 l -0.673624,0.527059 0.06578,-6.242466 z"
       id="path3020"
       inkscape:connector-curvature="0" />
    <path
       style="fill:#000000;stroke:#000000;stroke-width:0.08930324"
       d="m 1.7829242,21.840431 0,-8.215897 9.1357128,0 9.135711,0 5.306569,3.966439 c 2.918613,2.181542 5.319532,4.005329 5.335376,4.05286 0.01584,0.04753 -2.366083,1.959788 -5.293171,4.249459 l -5.321977,4.163038 -9.14911,0 -9.1491108,0 0,-8.215899 z m 25.8309618,1.263605 c 0.970056,-0.759153 1.762634,-1.404259 1.761285,-1.43357 -0.0035,-0.07601 -8.12602,-6.119954 -8.271476,-6.154786 -0.09967,-0.02387 -0.118176,0.51017 -0.106739,3.080961 l 0.01384,3.109836 0.07854,-2.098626 c 0.0432,-1.154244 0.06569,-2.490444 0.04998,-2.969333 -0.01571,-0.478888 -0.01189,-0.870706 0.0085,-0.870706 0.03866,0 4.368593,3.175218 6.640843,4.86985 0.722358,0.538731 1.315108,1.003509 1.317223,1.032839 0.0021,0.02933 -1.171105,0.973712 -2.607154,2.098626 -1.436048,1.124914 -3.265319,2.558244 -4.065048,3.185177 l -1.454051,1.139878 0.06105,-3.141199 c 0.04625,-2.379743 0.03585,-3.125626 -0.0429,-3.076954 -0.07595,0.04694 -0.103953,0.928894 -0.103953,3.273781 l 0,3.209536 2.478165,-1.937516 c 1.362991,-1.065634 3.271848,-2.558642 4.241904,-3.317794 z"
       id="path3022"
       inkscape:connector-curvature="0" />
    <path
       style="fill:#000000;stroke:#000000;stroke-width:0.08930324"
       d="m 1.7829242,21.840431 0,-8.215897 9.1539418,0 9.153941,0 5.313184,3.985106 c 2.92225,2.191809 5.313183,4.01773 5.313183,4.057603 0,0.06276 -2.625579,2.142466 -8.989381,7.120418 l -1.621862,1.268669 -9.161504,0 -9.1615028,0 0,-8.215899 z m 22.7065918,3.690181 c 1.92715,-1.506809 3.818272,-2.992821 4.202495,-3.302249 l 0.698586,-0.562597 -4.069713,-3.03828 c -2.238342,-1.671055 -4.130024,-3.038281 -4.203738,-3.038281 -0.07371,0 -0.134026,0.04019 -0.134026,0.0893 0,0.04912 0.0344,0.07926 0.07645,0.06698 0.123666,-0.03611 8.037254,5.797347 8.046179,5.931201 0.0038,0.05739 -7.66743,6.117889 -8.032421,6.345829 -0.164903,0.102985 -0.242977,0.247749 -0.133614,0.247749 0.02524,0 1.622654,-1.232844 3.549804,-2.739653 l 0,0 z m -3.435012,-2.216677 c 0.0033,-0.721657 -0.02367,-1.09336 -0.07138,-0.982336 -0.04221,0.09823 -0.07229,1.384201 -0.06683,2.857704 0.0098,2.646134 0.01067,2.65822 0.07138,0.982336 0.03381,-0.933219 0.06388,-2.219186 0.06683,-2.857704 z m 0.01607,-7.120532 c -0.03966,-0.167214 -0.06707,0.47036 -0.06425,1.494428 l 0.0049,1.786065 0.06425,-1.494428 c 0.03534,-0.821936 0.03312,-1.625665 -0.0049,-1.786065 l 0,0 z"
       id="path3024"
       inkscape:connector-curvature="0" />
    <path
       style="fill:#000000;stroke:#000000;stroke-width:0.08930324"
       d="m 1.7829242,21.840431 0,-8.215897 9.1713688,0 9.171369,0 5.300238,3.982871 c 2.915132,2.190579 5.284882,4.029109 5.266112,4.085623 -0.01877,0.05651 -2.399989,1.961376 -5.2916,4.233027 l -5.257473,4.130275 -9.180007,0 -9.1800078,0 0,-8.215899 z m 23.2188418,3.25812 c 3.716147,-2.905543 4.293418,-3.37232 4.265757,-3.44926 -0.05578,-0.155165 -8.098536,-6.097114 -8.164071,-6.031579 -0.02288,0.02288 0.392782,0.356185 0.923695,0.740675 3.913744,2.834352 7.006475,5.156057 7.063682,5.302688 0.02588,0.06633 -1.991079,1.693521 -5.852802,4.721791 -1.141965,0.895501 -2.0763,1.649782 -2.0763,1.676178 0,0.0264 0.251165,-0.149753 0.558145,-0.391441 0.30698,-0.24169 1.783832,-1.397762 3.281894,-2.569052 l 0,0 z m -4.042894,-0.824606 c -0.01927,-0.184188 -0.03503,-0.03349 -0.03503,0.334887 0,0.368376 0.01576,0.519075 0.03503,0.334887 0.01927,-0.184188 0.01927,-0.485586 0,-0.669774 z"
       id="path3026"
       inkscape:connector-curvature="0" />
    <path
       style="fill:none;stroke:none"
       d="m 10.91418,30.078234 -9.1312558,-0.02275 0,-8.215477 0,-8.215476 9.1874088,0 9.187409,0 3.87319,2.915051 c 5.513928,4.149909 6.686242,5.049013 6.686242,5.128 0,0.03834 -0.753496,0.669215 -1.674436,1.40194 -2.650998,2.109212 -8.832912,6.95885 -8.919064,6.9969 -0.04303,0.01901 -4.187303,0.02432 -9.209494,0.01181 z m 18.160601,-8.24854 c 0.149931,-0.165672 0.149449,-0.180294 -0.01079,-0.326929 -0.159991,-0.146404 -0.16192,-0.145811 -0.04173,0.01283 0.137473,0.181456 0.179851,0.130196 -0.809349,0.978971 -0.291033,0.249717 -0.249775,0.229566 0.15342,-0.07493 0.303328,-0.229079 0.622134,-0.494551 0.708457,-0.589937 l 0,0 z m -3.179982,-2.702076 c 0,-0.01854 -0.07033,-0.08887 -0.156281,-0.156281 -0.14164,-0.111082 -0.144799,-0.107923 -0.03372,0.03372 0.116663,0.148757 0.189998,0.196064 0.189998,0.122564 z m -0.357213,-0.26791 c 0,-0.01854 -0.07033,-0.08887 -0.156281,-0.156281 -0.14164,-0.111081 -0.144799,-0.107923 -0.03372,0.03372 0.116663,0.148757 0.189998,0.196064 0.189998,0.122564 z m -0.357213,-0.26791 c 0,-0.01854 -0.07033,-0.08887 -0.156281,-0.15628 -0.14164,-0.111082 -0.144799,-0.107923 -0.03372,0.03372 0.116663,0.148756 0.189998,0.196063 0.189998,0.122564 z m -0.982336,-0.714426 c 0,-0.01854 -0.07033,-0.08887 -0.156281,-0.15628 -0.14164,-0.111082 -0.144799,-0.107923 -0.03372,0.03372 0.116663,0.148757 0.189998,0.196063 0.189998,0.122564 z m -0.357213,-0.267909 c 0,-0.01854 -0.07033,-0.08887 -0.156281,-0.156281 -0.14164,-0.111082 -0.144799,-0.107923 -0.03372,0.03372 0.116663,0.148757 0.189998,0.196064 0.189998,0.122564 z m -0.982336,-0.714426 c 0,-0.01854 -0.07033,-0.08887 -0.15628,-0.156281 -0.14164,-0.111082 -0.144799,-0.107923 -0.03372,0.03372 0.116664,0.148757 0.189998,0.196064 0.189998,0.122564 z"
       id="path3028"
       inkscape:connector-curvature="0" />
    <path
       sodipodi:type="arc"
       style="fill:#ffffff;stroke:none"
       id="path3030"
       sodipodi:cx="20.450441"
       sodipodi:cy="11.370952"
       sodipodi:rx="3.5721295"
       sodipodi:ry="3.9293425"
       d="m 24.022571,11.370952 a 3.5721295,3.9293425 0 1 1 -7.144259,0 3.5721295,3.9293425 0 1 1 7.144259,0 z"
       transform="matrix(0.54999999,0,0,0.54999999,12.596222,15.279637)" />
    <rect
       style="fill:#ffffff;stroke:none"
       id="rect3035"
       width="1.2502453"
       height="9.4661436"
       x="9.3768406"
       y="16.729145" />
    <rect
       style="fill:#ffffff;stroke:none"
       id="rect3035-1"
       width="1.2502453"
       height="9.4661436"
       x="20.747791"
       y="-14.645731"
       transform="matrix(0,1,-1,0,0,0)" />
  </g>
</svg>
